<svg xmlns:dc="http://purl.org/dc/elements/1.1/" xmlns:cc="http://creativecommons.org/ns#" xmlns:rdf="http://www.w3.org/1999/02/22-rdf-syntax-ns#" xmlns:svg="http://www.w3.org/2000/svg" xmlns="http://www.w3.org/2000/svg" viewBox="0 0 400 400" fill="none" width="60" height="60"><metadata><rdf:RDF><cc:Work><dc:format>image/svg+xml</dc:format><dc:type rdf:resource="http://purl.org/dc/dcmitype/StillImage"/><dc:title>Adventurer Neutral</dc:title><dc:creator><cc:Agent><dc:title>Lisa Wischofsky</dc:title></cc:Agent></dc:creator><dc:source>https://www.instagram.com/lischis_adventures/</dc:source><cc:license rdf:resource="https://creativecommons.org/licenses/by/4.0/"/></cc:Work><cc:License rdf:about="https://creativecommons.org/licenses/by/4.0/"><cc:permits rdf:resource="https://creativecommons.org/ns#Reproduction"/><cc:permits rdf:resource="https://creativecommons.org/ns#Distribution"/><cc:permits rdf:resource="https://creativecommons.org/ns#DerivativeWorks"/><cc:requires rdf:resource="https://creativecommons.org/ns#Notice"/><cc:requires rdf:resource="https://creativecommons.org/ns#Attribution"/></cc:License></rdf:RDF></metadata><mask id="avatarsRadiusMask"><rect width="400" height="400" rx="0" ry="0" x="0" y="0" fill="#fff"/></mask><g mask="url(#avatarsRadiusMask)"><rect fill="rgba(118, 57, 0, 1)" width="400" height="400" x="0" y="0"/><g transform="translate(-279 -322)"><path d="M556 424.07c14.74-.22 29.47 4.69 41.05 13.82 18.48 14.28 28.19 38.59 24.23 61.66-.97 7.55-3.91 14.28-6.79 21.23-1.41.65-2.88 1.52-4.42 1.77-2.33.07-4.8-.91-7.04-1.55-15.9-4.89-32.42-7.29-49.03-7.62-15.06.4-29.61 2.56-43.09 9.64-3.06 1.28-5.83 4.03-8.97 1.26-8.58-12.42-11.56-28.46-9.81-43.32 1.88-14.82 8.94-28.76 19.83-39 11.84-11.27 27.69-17.72 44.04-17.89Z" fill="#000"/><path d="M557 429.85c13.7-.2 27.09 4.84 37.68 13.45 9.3 7.59 16.22 18.13 19.44 29.7 4.21 14.33 2.58 30.26-4.3 43.51-5.35-.61-10.17-2.65-15.46-3.78-16.05-3.75-32.92-5.8-49.39-4.47-14.09.98-26.96 4.71-39.29 11.59-7.06-12.12-10.21-26.98-7.46-40.82 2.58-15.15 11.3-29.08 23.8-38.03 10.11-7.24 22.5-11.37 34.98-11.15Z" fill="#fff"/><path d="M381.31 447.08c12.98-1.32 26.32 2.09 37.02 9.56 12.03 8.29 20.42 21.5 22.82 35.91 1.2 8.25.97 17.09-1.57 25.09-4.48 15.26-15.89 28.16-30.47 34.49-12.99 5.78-28.14 6.16-41.44 1.18-11.33-4.19-21.14-12.24-27.48-22.52-5.05-8.05-7.68-17.27-8.31-26.71-.33-12.56 3.39-25.14 10.99-35.21 9.07-12.24 23.28-20.27 38.44-21.79Z" fill="#000"/><path d="M376.49 453.67c18.14-4.16 37.8 3.04 49.17 17.7 8.71 11.04 12.73 26.33 9.55 40.13-1.95 9.98-7.12 19.22-14.55 26.16-8.03 7.65-18.6 12.27-29.63 13.27-19.64 1.82-39.23-9.24-48.03-26.86-7.99-15.54-6.9-34.79 2.78-49.34 7-10.7 18.2-18.4 30.71-21.06Z" fill="#fff"/><path d="M519.39 474.75c8.57-2.25 17.85 3.55 19.35 12.31 1.85 8.26-3.88 16.87-12.14 18.52-9.15 2.29-18.91-5.05-19.05-14.53-.72-7.51 4.64-14.5 11.84-16.3ZM403.4 485.62c6.37-2.18 13.28.49 17.27 5.71 4.54 5.93 4.18 14.9-1.03 20.31-5.02 5.79-14.49 6.76-20.65 2.39-4.26-2.85-6.94-7.87-6.92-13-.26-6.95 4.69-13.5 11.33-15.41Z" fill="#000"/></g><g transform="translate(-279 -322)"><g fill="#000"><path d="M545.03 378.5c24.7.94 48.04 8.97 69.45 20.99 2.26 1.32 4.92 2.49 6.79 4.33 1.3 2.39-.38 5.13-3.2 4.19-16.58-6.21-33.56-9.63-51.06-12.02-20.3-2.34-39.92-3.68-60.2-.13-3.2.44-6.87 2.16-10.08 1.59-2.66-1.69-1.2-6.1 1.29-7.37 13.63-9.33 30.79-12.1 47.01-11.58ZM407.99 396.92c3.51.64 6.6 1.92 9.63 3.78-.15 1.2-.26 2.4-.33 3.62-2.7.74-5.46 1.12-8.24 1.34-13.17 1.15-26.45 5.11-38.81 9.69-12.23 4.75-24.78 10.64-35.19 18.71-2.82 2.03-4.13 4.82-8.08 4.47-.5-.9-1-1.79-1.51-2.67.89-1.59 1.68-3.17 2.76-4.64 9.55-13.17 23.64-23.22 38.61-29.35 12.7-5.15 27.61-8.05 41.16-4.95Z"/></g></g><g transform="translate(-279 -322)"><path d="M516.47 555.6c6.02 4.43 11.7 10.01 15.3 16.62 2.64 4.83 3.27 11.66-.42 16.13-4.14 5.37-11.49 7.58-17.88 8.76-15.67 2.47-31.9.95-47.46-1.59-5.74-1.12-10.18 1.62-16 2.54-8.7 1.59-18.36 2.92-27.06 1-5.13-1.02-10.28-3.2-13.34-7.65-2.78-3.87-2.64-9.34-1.12-13.67 1.56-4.12 4.13-7.95 7.04-11.24 1.33-1.74 3.08-1.01 4.97-1.12.3 1.84 1.06 3.23-.36 4.82-2.61 3.34-5.24 6.37-6.44 10.55-1.12 3.27-.33 6.93 2.4 9.14 3.03 2.37 7.16 3.47 10.93 3.87 7.78.5 15.57.14 23.16-1.73 5.6-1.06 9.96-3.57 15.81-2.51 12.03 1.93 23.78 3.45 36.01 2.81 6.91-.23 13.95-1.07 20.26-4.11 3.23-1.78 6.04-4.15 5.68-8.22-.27-6.05-6.07-11.79-10.25-15.7-2.5-2.65-6.66-4.09-6.02-8.36 1.79-.89 2.95-1.8 4.79-.34Z" fill="#000"/></g><g transform="translate(-279 -322)"/></g></svg>