<svg xmlns:dc="http://purl.org/dc/elements/1.1/" xmlns:cc="http://creativecommons.org/ns#" xmlns:rdf="http://www.w3.org/1999/02/22-rdf-syntax-ns#" xmlns:svg="http://www.w3.org/2000/svg" xmlns="http://www.w3.org/2000/svg" viewBox="0 0 400 400" fill="none" width="60" height="60"><metadata><rdf:RDF><cc:Work><dc:format>image/svg+xml</dc:format><dc:type rdf:resource="http://purl.org/dc/dcmitype/StillImage"/><dc:title>Adventurer Neutral</dc:title><dc:creator><cc:Agent><dc:title>Lisa Wischofsky</dc:title></cc:Agent></dc:creator><dc:source>https://www.instagram.com/lischis_adventures/</dc:source><cc:license rdf:resource="https://creativecommons.org/licenses/by/4.0/"/></cc:Work><cc:License rdf:about="https://creativecommons.org/licenses/by/4.0/"><cc:permits rdf:resource="https://creativecommons.org/ns#Reproduction"/><cc:permits rdf:resource="https://creativecommons.org/ns#Distribution"/><cc:permits rdf:resource="https://creativecommons.org/ns#DerivativeWorks"/><cc:requires rdf:resource="https://creativecommons.org/ns#Notice"/><cc:requires rdf:resource="https://creativecommons.org/ns#Attribution"/></cc:License></rdf:RDF></metadata><mask id="avatarsRadiusMask"><rect width="400" height="400" rx="0" ry="0" x="0" y="0" fill="#fff"/></mask><g mask="url(#avatarsRadiusMask)"><rect fill="rgba(236, 173, 128, 1)" width="400" height="400" x="0" y="0"/><g transform="translate(-279 -322)"><path d="M574.47 426.48c13.52 3.69 25.28 11.87 34.03 22.75 7.5-5.17 14.74-10.73 22.37-15.71 1.02.43 2.04.86 3.07 1.28-.34 2.1-.24 3.64-2.24 4.9-6.6 4.79-13.31 9.45-19.92 14.23 3.77 6.35 7.07 12.73 8.56 20.03 1.59 7.69 2.58 16.11 1.14 23.88-.44 2.76-3.06 3.5-5.47 3.7-19.7 1.03-39.42 3.02-59.01 5.35-11.07 1.46-22.16 1.93-33.22 3.58-4.5.68-9.03 1.18-13.54 1.79-4.99.7-9.54 1.77-14.54.33-4.84-13.86-5.54-28.92-1.07-42.97 4.7-15.08 15.13-28.21 28.7-36.27 15.07-9.25 34.17-11.67 51.14-6.87Z" fill="#000"/><path d="M565.47 430.38c17.56 2.52 33.65 13.22 42.62 28.54 6.6 11.12 9.16 23.82 8.14 36.67-4.76.4-9.48.97-14.25 1.18-18.01 1.19-35.9 3.32-53.81 5.48 1.05-2.96 2.25-6.07 2.52-9.21.8-9.37-4.1-18.82-12.31-23.44-5.31-3.21-11.43-3.75-17.45-2.72-11.6 2.17-20.3 13.34-19.52 25.13 0 6.06 2.64 11.12 6.32 15.74-2.43.24-4.86.49-7.3.74-4.69-14.01-4.17-28.8 1.6-42.39 6.22-14.87 18.61-26.86 33.74-32.46 9.48-3.74 19.65-4.48 29.7-3.26Z" fill="#fff"/><path d="M416.519 455.44c12.78 8.07 21.86 21.58 24.51 36.47 1.39 8.37 1.07 16.97-1.24 25.15-5.34 1.09-10.4.57-15.79.57-24.04-.24-48-.16-72 1.46-5.87-.14-12.63 1.57-17.84-1.24-.94-4.53-2.07-9.19-2.27-13.82-.33-10.11 2.18-19.99 6.83-28.94-6-3.98-12.33-7.55-18.19-11.72-1.91-1.41-1.7-2.69-.84-4.69 2.76-1.07 4.51.51 6.78 1.81 5.07 3.31 10.17 6.56 15.27 9.82 7.71-10.76 18.85-18.63 31.73-21.84 14.52-3.7 30.44-1.13 43.05 6.97Z" fill="#000"/><path d="M400.8 454.53c12.36 3.61 23.04 12.14 29.24 23.44 5.79 10.51 7.71 22.67 5.07 34.42l-5.61.12c2.13-4.63 3.58-9.36 2.88-14.52-.91-8.64-7.3-16.11-15.55-18.64-3.85-1.06-7.94-1.15-11.81-.2-9.02 2.14-16.25 10.53-16.65 19.85-.47 4.7.89 8.93 2.74 13.17-13.38.11-26.76.61-40.1 1.61-3.69.2-7.91.69-11.51-.24-1.64-3.05-1.63-7.15-1.78-10.54-.55-13.95 5.57-28.01 15.83-37.42 12.47-11.6 30.91-16.01 47.25-11.05Z" fill="#fff"/></g><g transform="translate(-279 -322)"><g fill="#000"><path d="M613.54 401.51c1.59 1.01 1.08 2.86 1.24 4.48-.06 11.34-.05 22.7-.12 34.04.32 2.75-2.42 4.22-4.62 5-39.99 13.74-80.12 27.25-120.05 41.12-2.53.2-2.84-1.75-3.51-3.66-1.63-6-3.3-11.98-5.01-17.95.97 5.75.98 11.66 1.36 17.47-.02 1.44.45 3.94-.99 4.85-1.95 1.4-4.07.13-4.6-2.03-3.64-12.73-7.02-25.58-10.66-38.32-.39-1.83-.65-3.91 1.36-4.88 2.11-.49 3.41.47 4 2.44 1.27 4.55 2.55 9.11 3.68 13.7-.73-5.24-.94-10.49-1.18-15.77-.01-1.27-.14-3.73 1.66-3.79 1.47-.26 2.98-.38 4.43-.72 41.23-11.74 82.37-23.44 123.6-35.22 3.27-.87 6.02-2.08 9.41-.76ZM324 433.87c13.64 1.39 27.36 1.44 41 2.58 21.04 1.05 42.11 2.67 63.14 3.42 7.79.78 15.61 1.12 23.44 1.68 2.77 2.19 1.08 8.08 1.91 11.33.56-2.97.18-6.91 1.92-9.46 2.15-1.8 5.08-.17 4.76 2.56-2.36 14.03-4.77 28.14-7.02 42.18-.8 2.93-4.48 2.56-5.29-.15-.27-4.92-.21-9.89-.28-14.83-1.03 4.29-1.47 8.69-2.47 12.98-.43 1.64-1.17 2.84-3.1 2.4-39.48-6.89-79.4-14.23-118.87-21.29-1.88-.2-2.83-1.46-3.09-3.26-1.45-7.98-2.5-16.04-4.12-23.99-.23-1.72-.74-3.14.56-4.58 2.12-2.29 4.72-1.68 7.51-1.57Z"/></g></g><g transform="translate(-279 -322)"><path d="M516.47 555.6c6.02 4.43 11.7 10.01 15.3 16.62 2.64 4.83 3.27 11.66-.42 16.13-4.14 5.37-11.49 7.58-17.88 8.76-15.67 2.47-31.9.95-47.46-1.59-5.74-1.12-10.18 1.62-16 2.54-8.7 1.59-18.36 2.92-27.06 1-5.13-1.02-10.28-3.2-13.34-7.65-2.78-3.87-2.64-9.34-1.12-13.67 1.56-4.12 4.13-7.95 7.04-11.24 1.33-1.74 3.08-1.01 4.97-1.12.3 1.84 1.06 3.23-.36 4.82-2.61 3.34-5.24 6.37-6.44 10.55-1.12 3.27-.33 6.93 2.4 9.14 3.03 2.37 7.16 3.47 10.93 3.87 7.78.5 15.57.14 23.16-1.73 5.6-1.06 9.96-3.57 15.81-2.51 12.03 1.93 23.78 3.45 36.01 2.81 6.91-.23 13.95-1.07 20.26-4.11 3.23-1.78 6.04-4.15 5.68-8.22-.27-6.05-6.07-11.79-10.25-15.7-2.5-2.65-6.66-4.09-6.02-8.36 1.79-.89 2.95-1.8 4.79-.34Z" fill="#000"/></g><g transform="translate(-279 -322)"/></g></svg>